<?xml version="1.0" standalone="no"?>
<!DOCTYPE svg PUBLIC "-//W3C//DTD SVG 20010904//EN"
 "http://www.w3.org/TR/2001/REC-SVG-20010904/DTD/svg10.dtd">
<svg version="1.0" xmlns="http://www.w3.org/2000/svg"
 width="300.000000pt" height="300.000000pt" viewBox="0 0 300.000000 300.000000"
 preserveAspectRatio="xMidYMid meet">

<g transform="translate(0.000000,300.000000) scale(0.100000,-0.100000)"
fill="#000000" stroke="none">
<path d="M1145 2971 c-145 -38 -199 -58 -324 -120 -157 -79 -243 -143 -386
-286 -143 -143 -207 -229 -285 -385 -63 -126 -91 -203 -125 -344 -26 -106 -26
-118 -23 -365 3 -211 7 -266 21 -311 10 -30 30 -93 44 -140 76 -246 255 -504
473 -684 187 -153 360 -240 615 -307 84 -22 108 -24 350 -24 250 1 264 2 355
27 263 73 428 159 620 324 244 208 396 452 488 784 25 91 26 105 27 355 0 242
-2 266 -24 350 -67 256 -154 430 -307 615 -92 110 -182 193 -330 303 -62 45
-263 142 -354 170 -47 14 -110 34 -140 44 -46 15 -97 18 -320 20 -262 2 -266
2 -375 -26z m615 -315 c25 -9 51 -16 58 -16 33 0 216 -80 302 -131 122 -73
387 -340 359 -362 -2 -2 -78 -52 -169 -111 -91 -60 -177 -117 -192 -127 -15
-11 -31 -19 -35 -18 -4 0 -34 31 -65 69 -139 166 -371 256 -594 231 -120 -14
-155 -24 -234 -67 -14 -8 -40 -21 -59 -30 -45 -21 -205 -181 -225 -225 -9 -19
-19 -41 -24 -49 -44 -76 -59 -127 -73 -244 -35 -308 142 -600 447 -735 67 -31
308 -41 399 -18 139 35 238 92 335 191 30 31 57 56 60 56 8 0 194 -136 332
-243 l61 -48 -114 -112 c-141 -141 -262 -219 -424 -275 -118 -40 -162 -51
-256 -63 -98 -12 -300 -6 -374 11 -277 63 -435 149 -619 337 -98 100 -155 177
-205 278 -70 140 -89 197 -117 350 -20 107 -13 385 11 465 65 210 115 318 194
421 22 30 51 67 63 84 44 56 152 151 243 212 106 71 166 98 375 165 66 21 145
27 320 23 128 -2 187 -7 220 -19z m-198 -618 l3 -61 60 -13 c123 -25 145 -33
145 -56 0 -18 -29 -136 -35 -146 -1 -1 -24 8 -51 20 -38 17 -69 22 -141 22
-83 1 -94 -1 -117 -23 -33 -31 -35 -79 -3 -108 27 -25 60 -42 152 -78 98 -39
150 -71 190 -117 66 -78 70 -202 10 -297 -29 -48 -111 -104 -170 -117 l-40
-10 -5 -69 -5 -70 -67 -3 -68 -3 0 66 c0 36 -3 65 -6 65 -3 0 -38 5 -77 11
-93 14 -169 46 -163 68 2 9 7 30 11 46 3 17 11 47 16 68 10 36 10 37 37 23 94
-47 252 -61 309 -26 88 53 58 141 -64 186 -239 87 -311 160 -301 305 4 52 12
76 34 110 34 51 93 94 149 110 60 16 65 24 65 95 l0 64 65 0 64 0 3 -62z"/>
</g>
</svg>
